<?xml version="1.0" encoding="utf-8"?>
<!-- Svg Vector Icons : http://www.onlinewebfonts.com/icon -->
<!DOCTYPE svg PUBLIC "-//W3C//DTD SVG 1.1//EN" "http://www.w3.org/Graphics/SVG/1.1/DTD/svg11.dtd">
<svg version="1.1" xmlns="http://www.w3.org/2000/svg" xmlns:xlink="http://www.w3.org/1999/xlink" x="0px" y="0px" viewBox="0 0 1000 1000" enable-background="new 0 0 1000 1000" xml:space="preserve">
<metadata> Svg Vector Icons : http://www.onlinewebfonts.com/icon </metadata>
<g><g transform="translate(0.000000,512.000000) scale(0.100000,-0.100000)"><path d="M1011,5014.8c-395.1-67.1-738.4-370.1-874.5-772.9C101.9,4140.3,100,3986.9,100,118.7c0-3875.9,1.9-4021.6,36.4-4123.3c122.7-362.5,377.8-617.5,740.3-740.3c101.6-34.5,247.4-36.4,4123.3-36.4c3875.9,0,4021.6,1.9,4123.3,36.4c362.5,122.7,617.5,377.8,740.3,740.3c34.5,101.6,36.4,247.4,36.4,4123.3c0,3875.9-1.9,4021.6-36.4,4123.3c-61.4,180.3-149.6,327.9-272.3,450.7c-130.4,132.3-237.8,203.3-427.7,276.2l-126.6,49.9l-3989,1.9C2854,5022.5,1037.8,5020.6,1011,5014.8z M9056.2,4692.7c218.6-55.6,429.6-247.4,502.5-460.3c32.6-90.1,34.5-333.7,34.5-4113.7c0-3900.8-1.9-4019.7-36.4-4115.6c-74.8-203.3-237.8-366.3-441.1-441.1c-95.9-34.6-214.8-36.4-4115.6-36.4c-3780,0-4023.6,1.9-4113.7,34.5c-132.3,46-274.2,157.3-358.6,281.9c-140,205.2-130.4-105.5-130.4,4276.7c0,2529.6,7.7,3969.9,19.2,4023.6c63.3,272.3,262.7,477.5,537,552.3c67.1,19.2,958.9,24.9,4037,24.9C8471.2,4721.4,8956.4,4717.6,9056.2,4692.7z"/><path d="M3392.9,4088.5c-23-9.6-51.8-40.3-61.4-67.1c-28.8-72.9-24.9-2218.9,1.9-2278.4c11.5-26.9,42.2-57.5,69-69c65.2-30.7,3129.9-30.7,3195.1,0c26.9,11.5,57.5,42.2,69.1,69c15.3,32.6,21.1,377.8,21.1,1137.3c0,759.5-5.8,1104.7-21.1,1137.3c-11.5,26.9-42.2,57.5-69.1,69C6540,4113.5,3460,4113.5,3392.9,4088.5z M6380.8,2880.3v-920.5H5000H3619.2v920.5v920.6H5000h1380.8V2880.3z"/><path d="M1624.7,3003.1c-320.3-69-648.2-326-794-621.4c-134.2-274.2-128.5-130.4-122.7-3055.1l5.7-2631.2l49.9-126.6c136.2-351,374-581.1,726.8-700c101.6-34.5,234-36.4,3509.6-36.4s3407.9,1.9,3509.6,36.4c180.3,61.4,327.9,149.6,450.7,272.3c132.3,130.4,203.3,237.8,276.2,427.7l49.9,126.6l5.8,2631.2c5.8,2924.7,11.5,2780.8-122.7,3055.1c-97.8,199.4-326,427.7-525.5,525.5c-157.3,76.7-356.7,126.6-510.1,126.6c-134.2,0-370.2-63.3-512.1-138.1c-157.3-82.5-406.6-331.8-489-489c-76.7-145.7-138.1-379.7-138.1-525.5c0-59.5-17.3-166.8-40.3-239.7c-34.5-109.3-59.5-147.7-159.2-249.3c-101.6-99.7-140-124.7-249.3-159.2c-128.5-40.3-163-40.3-1543.8-40.3c-1532.3,0-1522.7,0-1687.7,105.5c-74.8,47.9-168.8,143.8-216.7,222.5c-47.9,76.7-92.1,245.5-92.1,351c-1.9,297.3-122.7,577.3-352.9,809.3C2361.1,2972.4,2004.4,3085.5,1624.7,3003.1z M2050.4,2705.8c374-80.5,646.3-416.2,648.2-803.6c1.9-262.7,109.3-514,306.9-709.6c141.9-141.9,303-235.9,481.4-278.1c182.2-42.2,2844.1-42.2,3026.3,0c178.3,42.2,339.4,136.2,481.4,278.1c197.5,195.6,304.9,446.8,306.8,709.6c3.8,387.4,264.7,719.2,634.8,803.6c107.4,24.9,310.7,24.9,418.1,0c306.8-71,548.5-318.4,613.7-631c17.3-78.6,21.1-782.5,17.3-2742.5c-5.8-2589-5.8-2638.9-44.1-2727.1c-88.2-207.1-241.6-356.7-439.2-429.6c-94-34.5-203.3-36.4-3501.9-36.4c-3195.1,0-3409.9,1.9-3500,34.5c-132.3,46-274.2,157.3-358.6,281.9C1003.3-3343,1011-3502.1,1011-600.5c0,2819.2-3.8,2690.7,103.6,2901.6C1275.6,2619.5,1664.9,2786.4,2050.4,2705.8z"/></g></g>
</svg>